<svg xmlns="http://www.w3.org/2000/svg" version="1.1" xmlns:xlink="http://www.w3.org/1999/xlink" width="1000" height="1000"><g clip-path="url(#SvgjsClipPath1554)"><rect width="1000" height="1000" fill="#ffffff"></rect><g transform="matrix(21.875,0,0,21.875,150,150)"><svg xmlns="http://www.w3.org/2000/svg" version="1.1" xmlns:xlink="http://www.w3.org/1999/xlink" width="32" height="32"><svg xmlns="http://www.w3.org/2000/svg" viewBox="0 0 32 32"><title>54-Speech Bubble-Smile</title><g id="_54-Speech_Bubble-Smile" data-name="54-Speech Bubble-Smile"><path d="M12,31a1,1,0,0,1-1-1V25H1a1,1,0,0,1-1-1V2A1,1,0,0,1,1,1H31a1,1,0,0,1,1,1V24a1,1,0,0,1-1,1H18.41l-5.71,5.71A1,1,0,0,1,12,31ZM2,23H12a1,1,0,0,1,1,1v3.59l4.29-4.29A1,1,0,0,1,18,23H30V3H2Z"></path><path d="M21,18H11a2,2,0,0,1-2-2V15h2v1H21V15h2v1A2,2,0,0,1,21,18Z"></path><rect x="12" y="9" width="2" height="2"></rect><rect x="18" y="9" width="2" height="2"></rect></g></svg></svg></g></g><defs><clipPath id="SvgjsClipPath1554"><rect width="1000" height="1000" x="0" y="0" rx="300" ry="300"></rect></clipPath></defs></svg>